<?xml version="1.0" encoding="UTF-8"?>
<svg width="512pt" height="512pt" version="1.1" viewBox="0 0 512 512" xmlns="http://www.w3.org/2000/svg">
 <g fill="#6270F6">
  <path d="m256 494.11c-28.969 0-55.723-25.484-75.379-71.766-18.871-44.543-29.27-103.61-29.27-166.4 0-62.793 10.441-121.75 29.27-166.34 19.613-46.277 46.363-71.766 75.379-71.766 29.012 0 55.723 25.543 75.379 71.766 18.871 44.543 29.27 103.61 29.27 166.4 0 62.793-10.441 121.8-29.27 166.4-19.656 46.223-46.41 71.711-75.379 71.711zm0-463.42c-23.152 0-46.32 23.309-63.543 64-18.219 42.953-28.262 100.25-28.262 161.31s10.039 118.36 28.258 161.35c17.223 40.648 40.391 64 63.543 64s46.32-23.309 63.543-64c18.219-42.992 28.258-100.3 28.258-161.35s-10.039-118.36-28.258-161.35c-17.219-40.605-40.387-63.957-63.539-63.957z"/>
  <path d="m256 360.61c-62.734 0-121.8-10.395-166.4-29.27-46.277-19.613-71.766-46.363-71.766-75.379 0-29.012 25.543-55.68 71.766-75.336 44.543-18.871 103.61-29.27 166.4-29.27 62.793 0 121.8 10.395 166.4 29.27 46.277 19.613 71.766 46.363 71.766 75.379 0 29.012-25.543 55.723-71.766 75.379-44.598 18.828-103.66 29.227-166.4 29.227zm0-196.41c-61.055 0-118.36 10.039-161.35 28.258-40.648 17.223-64 40.391-64 63.543s23.309 46.32 64 63.543c42.992 18.219 100.3 28.258 161.35 28.258s118.36-10.039 161.35-28.258c40.648-17.223 64-40.391 64-63.543s-23.309-46.32-64-63.543c-42.996-18.215-100.3-28.258-161.35-28.258z"/>
  <path d="m379.85 440.41c-17.066 0-37.207-4.4961-59.492-13.512-44.844-18.148-93.965-52.566-138.31-96.938-44.371-44.348-78.789-93.469-96.938-138.31-18.844-46.578-17.961-83.555 2.5195-104.01s57.43-21.332 104.02-2.5312c44.844 18.148 93.965 52.566 138.31 96.938 44.344 44.375 78.777 93.484 96.926 138.32 18.844 46.594 17.961 83.527-2.5156 104.01-10.684 10.684-25.848 16.031-44.52 16.031zm-188.76-119.46c43.164 43.18 90.781 76.602 134.07 94.109 40.918 16.57 73.785 16.668 90.156 0.29688 16.371-16.371 16.27-49.238-0.29687-90.168-17.508-43.277-50.93-90.895-94.109-134.06-43.184-43.168-90.785-76.633-134.08-94.141-40.914-16.566-73.785-16.668-90.125-0.26953-16.34 16.398-16.27 49.238 0.29687 90.168 17.48 43.25 50.902 90.867 94.082 134.03z"/>
  <path d="m132.15 440.41c-18.672 0-33.836-5.3477-44.531-16.043-20.48-20.48-21.332-57.414-2.5156-104.01 18.148-44.844 52.566-93.965 96.938-138.31 44.359-44.359 93.484-78.777 138.32-96.926 46.566-18.855 83.543-17.973 104.01 2.5195 20.465 20.496 21.332 57.414 2.5156 104.01-18.145 44.844-52.562 93.965-96.934 138.31-44.375 44.344-93.484 78.777-138.32 96.926-22.273 9.0273-42.301 13.523-59.48 13.523zm54.414-253.84 4.5234 4.5234c-43.18 43.164-76.602 90.781-94.109 134.06-16.566 40.93-16.668 73.801-0.26953 90.141 16.398 16.34 49.238 16.27 90.156-0.29687 43.293-17.508 90.91-50.93 134.07-94.109 43.164-43.18 76.602-90.781 94.109-134.06 16.57-40.93 16.668-73.801 0.29688-90.168-16.371-16.371-49.238-16.27-90.156 0.29688-43.32 17.535-90.938 50.957-134.1 94.137z"/>
 </g>
</svg>
